<svg width="25" height="19" viewBox="0 0 25 19" fill="none" xmlns="http://www.w3.org/2000/svg">
<path d="M12.5 0.799988C6.81818 0.799988 1.96591 4.53199 0 9.79999C1.96591 15.068 6.81818 18.8 12.5 18.8C18.1818 18.8 23.0341 15.068 25 9.79999C23.0341 4.53199 18.1818 0.799988 12.5 0.799988ZM12.5 15.8C9.36364 15.8 6.81818 13.112 6.81818 9.79999C6.81818 6.48799 9.36364 3.79999 12.5 3.79999C15.6364 3.79999 18.1818 6.48799 18.1818 9.79999C18.1818 13.112 15.6364 15.8 12.5 15.8ZM12.5 6.19999C10.6136 6.19999 9.09091 7.80799 9.09091 9.79999C9.09091 11.792 10.6136 13.4 12.5 13.4C14.3864 13.4 15.9091 11.792 15.9091 9.79999C15.9091 7.80799 14.3864 6.19999 12.5 6.19999Z" fill="#8C9EC5"/>
</svg>
