<svg width="25" height="24" viewBox="0 0 25 24" fill="none" xmlns="http://www.w3.org/2000/svg">
<path d="M13 0C12.2667 0 11.6667 0.6 11.6667 1.33333V12C11.6667 12.7333 12.2667 13.3333 13 13.3333C13.7333 13.3333 14.3333 12.7333 14.3333 12V1.33333C14.3333 0.6 13.7333 0 13 0ZM19.8533 3.81333C19.3333 4.33333 19.3467 5.14667 19.84 5.66667C21.3467 7.26667 22.28 9.4 22.3333 11.76C22.4533 16.8667 18.2267 21.2667 13.12 21.32C7.90667 21.4 3.66667 17.2 3.66667 12C3.66667 9.54667 4.61333 7.32 6.16 5.65333C6.65333 5.13333 6.65333 4.32 6.14667 3.81333C5.61333 3.28 4.74667 3.29333 4.24 3.84C2.30667 5.89333 1.09333 8.62667 0.999999 11.6533C0.813332 18.16 6.10667 23.7867 12.6133 23.9867C19.4133 24.2 25 18.7467 25 11.9867C25 8.82667 23.7733 5.97333 21.7733 3.84C21.2667 3.29333 20.3867 3.28 19.8533 3.81333Z" fill="#5F5F5F"/>
</svg>
